<svg width="100" height="100" viewBox="0 0 100 100" fill="none" xmlns="http://www.w3.org/2000/svg">
<g clip-path="url(#clip0_1_671)">
<path d="M16.6665 78.1251L27.9478 5.93237C28.015 5.50066 28.2163 5.10102 28.5231 4.78997C28.8299 4.47892 29.2268 4.27221 29.6575 4.19907C30.0883 4.12594 30.5311 4.19008 30.9234 4.38243C31.3157 4.57477 31.6376 4.88559 31.8436 5.27091L43.5103 27.0313L48.1613 18.1772C48.338 17.8412 48.6032 17.56 48.9281 17.3637C49.2531 17.1675 49.6255 17.0638 50.005 17.0638C50.3846 17.0638 50.757 17.1675 51.082 17.3637C51.4069 17.56 51.6721 17.8412 51.8488 18.1772L83.3332 78.1251H16.6665Z" fill="#FFA000"/>
<path d="M55.6405 50.0053L43.505 27.0261L16.6665 78.1251L55.6405 50.0053Z" fill="#F57C00"/>
<path d="M83.3332 78.1251L74.6925 24.6563C74.6285 24.2796 74.4621 23.9278 74.2116 23.6393C73.961 23.3509 73.6359 23.1368 73.2719 23.0207C72.9079 22.9045 72.5189 22.8908 72.1476 22.9808C71.7763 23.0709 71.4369 23.2613 71.1665 23.5313L16.6665 78.1251L46.8228 95.0366C47.7541 95.5565 48.803 95.8295 49.8696 95.8295C50.9363 95.8295 51.9852 95.5565 52.9165 95.0366L83.3332 78.1251Z" fill="#FFCA28"/>
<path d="M74.6927 24.6564C74.6287 24.2797 74.4623 23.9279 74.2117 23.6394C73.9612 23.3509 73.6361 23.1369 73.2721 23.0207C72.9081 22.9046 72.5191 22.8908 72.1478 22.9809C71.7764 23.0709 71.437 23.2614 71.1667 23.5314L60.3542 34.3751L51.8438 18.172C51.667 17.8361 51.4019 17.5548 51.0769 17.3586C50.752 17.1624 50.3796 17.0587 50 17.0587C49.6204 17.0587 49.248 17.1624 48.9231 17.3586C48.5981 17.5548 48.333 17.8361 48.1563 18.172L43.5052 27.0262L31.8385 5.27096C31.6322 4.88556 31.3099 4.57483 30.9172 4.38276C30.5245 4.19069 30.0813 4.12701 29.6504 4.20075C29.2196 4.27448 28.8228 4.48189 28.5163 4.79361C28.2098 5.10533 28.0091 5.50556 27.9427 5.93763L16.6667 78.1251H16.625L16.6615 78.1668L16.9583 78.3126L60.3281 34.896L71.151 24.0626C71.4212 23.7912 71.761 23.5994 72.1331 23.5085C72.5052 23.4176 72.8951 23.431 73.2601 23.5472C73.625 23.6635 73.9508 23.8781 74.2018 24.1675C74.4527 24.4569 74.6189 24.8099 74.6823 25.1876L83.25 78.1772L83.3333 78.1251L74.6927 24.6564ZM16.7656 78.0262L27.9479 6.45326C28.0144 6.02118 28.215 5.62095 28.5215 5.30924C28.828 4.99752 29.2248 4.79011 29.6557 4.71637C30.0865 4.64264 30.5297 4.70632 30.9224 4.89839C31.3151 5.09046 31.6374 5.40119 31.8438 5.78659L43.5104 27.547L48.1615 18.6928C48.3382 18.3569 48.6034 18.0756 48.9283 17.8794C49.2532 17.6832 49.6256 17.5795 50.0052 17.5795C50.3848 17.5795 50.7572 17.6832 51.0821 17.8794C51.4071 18.0756 51.6722 18.3569 51.849 18.6928L60.1823 34.5418L16.7656 78.0262Z" fill="white" fill-opacity="0.2"/>
<path opacity="0.2" d="M52.9165 94.526C51.9852 95.046 50.9363 95.3189 49.8696 95.3189C48.803 95.3189 47.7541 95.046 46.8228 94.526L16.7394 77.651L16.6665 78.1249L46.8228 95.0312C47.7541 95.5512 48.803 95.8242 49.8696 95.8242C50.9363 95.8242 51.9852 95.5512 52.9165 95.0312L83.3332 78.1249L83.255 77.6458L52.9165 94.526Z" fill="#A52714"/>
<path d="M74.6925 24.6564C74.6285 24.2797 74.4621 23.9279 74.2116 23.6394C73.961 23.3509 73.6359 23.1369 73.2719 23.0207C72.9079 22.9046 72.5189 22.8908 72.1476 22.9809C71.7763 23.0709 71.4369 23.2614 71.1665 23.5314L60.354 34.3751L51.8436 18.172C51.6668 17.8361 51.4017 17.5548 51.0767 17.3586C50.7518 17.1624 50.3794 17.0587 49.9998 17.0587C49.6202 17.0587 49.2479 17.1624 48.9229 17.3586C48.598 17.5548 48.3328 17.8361 48.1561 18.172L43.505 27.0262L31.8384 5.27096C31.6321 4.88556 31.3097 4.57483 30.917 4.38276C30.5243 4.19069 30.0812 4.12701 29.6503 4.20075C29.2194 4.27448 28.8226 4.48189 28.5161 4.79361C28.2096 5.10533 28.009 5.50556 27.9425 5.93763L16.6665 78.1251L46.8228 95.0314C47.7541 95.5514 48.803 95.8244 49.8696 95.8244C50.9363 95.8244 51.9852 95.5514 52.9165 95.0314L83.3332 78.1251L74.6925 24.6564Z" fill="url(#paint0_linear_1_671)"/>
<path d="M74.9998 95.8334C86.5058 95.8334 95.8332 86.506 95.8332 75.0001C95.8332 63.4941 86.5058 54.1667 74.9998 54.1667C63.4939 54.1667 54.1665 63.4941 54.1665 75.0001C54.1665 86.506 63.4939 95.8334 74.9998 95.8334Z" fill="#757575"/>
<path fill-rule="evenodd" clip-rule="evenodd" d="M75 76.0416L65.625 80.2083V76.0416L75 71.8749L84.375 76.0416V79.6874V78.9062V80.2083L75 76.0416ZM75 64.5833L84.375 68.7499V72.9166L75 68.7499L65.625 72.9166V68.7499L75 64.5833ZM78.5156 79.6874L83.2031 81.7708L75 85.4166V81.2499L78.5156 79.6874Z" fill="white"/>
</g>
<defs>
<linearGradient id="paint0_linear_1_671" x1="14.1603" y1="20.9798" x2="83.7889" y2="90.6085" gradientUnits="userSpaceOnUse">
<stop stop-color="white" stop-opacity="0.1"/>
<stop offset="1" stop-color="white" stop-opacity="0"/>
</linearGradient>
<clipPath id="clip0_1_671">
<rect width="100" height="100" fill="white"/>
</clipPath>
</defs>
</svg>
