<svg width="37" height="37" viewBox="0 0 37 37" fill="none" xmlns="http://www.w3.org/2000/svg">
<path d="M31.2188 0H5.78125C2.58835 0 0 2.58835 0 5.78125V31.2188C0 34.4116 2.58835 37 5.78125 37H31.2188C34.4116 37 37 34.4116 37 31.2188V5.78125C37 2.58835 34.4116 0 31.2188 0Z" fill="#231E1B"/>
<path fill-rule="evenodd" clip-rule="evenodd" d="M18.4717 9.472C13.38 9.472 9.25 13.602 9.25 18.6937C9.25 22.7671 11.909 26.2182 15.5298 27.4628C15.9824 27.5194 16.1521 27.2365 16.1521 27.0102C16.1521 26.7839 16.1521 26.2182 16.1521 25.4261C13.6063 25.9919 13.0405 24.1815 13.0405 24.1815C12.6445 23.1066 12.0222 22.8237 12.0222 22.8237C11.1735 22.2579 12.0787 22.2579 12.0787 22.2579C12.9839 22.3145 13.4931 23.2197 13.4931 23.2197C14.3417 24.6341 15.643 24.2381 16.1521 24.0118C16.2087 23.3894 16.4916 22.9934 16.7179 22.7671C14.6812 22.5408 12.5313 21.7488 12.5313 18.1845C12.5313 17.1662 12.8708 16.3741 13.4931 15.6952C13.4365 15.5255 13.0971 14.5637 13.6063 13.3191C13.6063 13.3191 14.3983 13.0928 16.1521 14.2809C16.8876 14.0546 17.6797 13.998 18.4717 13.998C19.2638 13.998 20.0558 14.1111 20.7913 14.2809C22.5451 13.0928 23.3372 13.3191 23.3372 13.3191C23.8463 14.5637 23.5069 15.5255 23.4503 15.7518C24.0161 16.3741 24.4121 17.2228 24.4121 18.2411C24.4121 21.8053 22.2622 22.5408 20.2255 22.7671C20.565 23.05 20.8479 23.6157 20.8479 24.4644C20.8479 25.709 20.8479 26.6708 20.8479 27.0102C20.8479 27.2365 21.0176 27.5194 21.4702 27.4628C25.1476 26.2182 27.75 22.7671 27.75 18.6937C27.6934 13.602 23.5635 9.472 18.4717 9.472Z" fill="white"/>
</svg>
