<svg width="37" height="37" viewBox="0 0 37 37" fill="none" xmlns="http://www.w3.org/2000/svg">
<path d="M0 18.5C0 28.7173 8.28273 37 18.5 37C28.7173 37 37 28.7173 37 18.5C37 8.28273 28.7173 0 18.5 0C8.28273 0 0 8.28273 0 18.5Z" fill="#F00073"/>
<path d="M18.5 10.6375C21.0437 10.6375 21.3906 10.6375 22.4312 10.6375C23.3562 10.6375 23.8187 10.8688 24.1656 10.9844C24.6281 11.2156 24.975 11.3313 25.3218 11.6781C25.6687 12.025 25.9 12.3719 26.0156 12.8344C26.1312 13.1813 26.2468 13.6438 26.3625 14.5688C26.3625 15.6094 26.3625 15.8406 26.3625 18.5C26.3625 21.1594 26.3625 21.3906 26.3625 22.4313C26.3625 23.3563 26.1312 23.8188 26.0156 24.1656C25.7843 24.6281 25.6687 24.975 25.3218 25.3219C24.975 25.6688 24.6281 25.9 24.1656 26.0156C23.8187 26.1313 23.3562 26.2469 22.4312 26.3625C21.3906 26.3625 21.1593 26.3625 18.5 26.3625C15.8406 26.3625 15.6093 26.3625 14.5687 26.3625C13.6437 26.3625 13.1812 26.1313 12.8343 26.0156C12.3718 25.7844 12.025 25.6688 11.6781 25.3219C11.3312 24.975 11.1 24.6281 10.9843 24.1656C10.8687 23.8188 10.7531 23.3563 10.6375 22.4313C10.6375 21.3906 10.6375 21.1594 10.6375 18.5C10.6375 15.8406 10.6375 15.6094 10.6375 14.5688C10.6375 13.6438 10.8687 13.1813 10.9843 12.8344C11.2156 12.3719 11.3312 12.025 11.6781 11.6781C12.025 11.3313 12.3718 11.1 12.8343 10.9844C13.1812 10.8688 13.6437 10.7531 14.5687 10.6375C15.6093 10.6375 15.9562 10.6375 18.5 10.6375ZM18.5 8.90313C15.8406 8.90313 15.6093 8.90313 14.5687 8.90313C13.5281 8.90313 12.8343 9.13438 12.2562 9.36563C11.6781 9.59688 11.1 9.94375 10.5218 10.5219C9.9437 11.1 9.71245 11.5625 9.36558 12.2563C9.13433 12.8344 9.0187 13.5281 8.90308 14.5688C8.90308 15.6094 8.90308 15.9563 8.90308 18.5C8.90308 21.1594 8.90308 21.3906 8.90308 22.4313C8.90308 23.4719 9.13433 24.1656 9.36558 24.7438C9.59683 25.3219 9.9437 25.9 10.5218 26.4781C11.1 27.0563 11.5625 27.2875 12.2562 27.6344C12.8343 27.8656 13.5281 27.9812 14.5687 28.0969C15.6093 28.0969 15.9562 28.0969 18.5 28.0969C21.0437 28.0969 21.3906 28.0969 22.4312 28.0969C23.4718 28.0969 24.1656 27.8656 24.7437 27.6344C25.3218 27.4031 25.9 27.0563 26.4781 26.4781C27.0562 25.9 27.2875 25.4375 27.6343 24.7438C27.8656 24.1656 27.9812 23.4719 28.0968 22.4313C28.0968 21.3906 28.0968 21.0438 28.0968 18.5C28.0968 15.9563 28.0968 15.6094 28.0968 14.5688C28.0968 13.5281 27.8656 12.8344 27.6343 12.2563C27.4031 11.6781 27.0562 11.1 26.4781 10.5219C25.9 9.94375 25.4375 9.7125 24.7437 9.36563C24.1656 9.13438 23.4718 9.01875 22.4312 8.90313C21.3906 8.90313 21.1593 8.90313 18.5 8.90313Z" fill="white"/>
<path d="M18.5 13.5281C15.725 13.5281 13.5281 15.725 13.5281 18.5C13.5281 21.275 15.725 23.4719 18.5 23.4719C21.275 23.4719 23.4718 21.275 23.4718 18.5C23.4718 15.725 21.275 13.5281 18.5 13.5281ZM18.5 21.7375C16.7656 21.7375 15.2625 20.35 15.2625 18.5C15.2625 16.7656 16.65 15.2625 18.5 15.2625C20.2343 15.2625 21.7375 16.65 21.7375 18.5C21.7375 20.2344 20.2343 21.7375 18.5 21.7375Z" fill="white"/>
<path d="M23.5875 14.5688C24.226 14.5688 24.7437 14.0511 24.7437 13.4125C24.7437 12.7739 24.226 12.2563 23.5875 12.2563C22.9489 12.2563 22.4312 12.7739 22.4312 13.4125C22.4312 14.0511 22.9489 14.5688 23.5875 14.5688Z" fill="white"/>
</svg>
