<svg width="37" height="37" viewBox="0 0 37 37" fill="none" xmlns="http://www.w3.org/2000/svg">
<path d="M31.2188 0H5.78125C2.58835 0 0 2.58835 0 5.78125V31.2188C0 34.4116 2.58835 37 5.78125 37H31.2188C34.4116 37 37 34.4116 37 31.2188V5.78125C37 2.58835 34.4116 0 31.2188 0Z" fill="#2867B2"/>
<path d="M13.4125 27.75H9.48125V15.3781H13.4125V27.75ZM11.4469 13.6438C10.175 13.6438 9.25 12.7187 9.25 11.4469C9.25 10.175 10.2906 9.25 11.4469 9.25C12.7188 9.25 13.6438 10.175 13.6438 11.4469C13.6438 12.7187 12.7188 13.6438 11.4469 13.6438ZM27.75 27.75H23.8188V21.0438C23.8188 19.0781 23.0094 18.5 21.8531 18.5C20.6969 18.5 19.5406 19.425 19.5406 21.1594V27.75H15.6094V15.3781H19.3094V17.1125C19.6562 16.3031 21.0437 15.0312 23.0094 15.0312C25.2062 15.0312 27.5188 16.3031 27.5188 20.1187V27.75H27.75Z" fill="white"/>
</svg>
